<svg width="24" height="24" viewBox="0 0 24 24" fill="none" xmlns="http://www.w3.org/2000/svg">
<path d="M24 12.2667C24 11.2801 23.9183 10.5601 23.7415 9.81339H12.2447V14.2668H18.9931C18.857 15.3735 18.1223 17.0402 16.4896 18.1602L16.4667 18.3092L20.1018 21.069L20.3537 21.0936C22.6666 19.0002 24 15.9201 24 12.2667Z" fill="#4285F4"/>
<path d="M12.2431 24.0005C15.5493 24.0005 18.3248 22.9337 20.3521 21.0937L16.4881 18.1602C15.4541 18.8669 14.0663 19.3603 12.2431 19.3603C9.00501 19.3603 6.25669 17.267 5.27699 14.3735L5.13339 14.3855L1.35358 17.2522L1.30415 17.3869C3.31777 21.307 7.4539 24.0005 12.2431 24.0005Z" fill="#34A853"/>
<path d="M5.27896 14.3737C5.02046 13.627 4.87085 12.827 4.87085 12.0003C4.87085 11.1736 5.02046 10.3736 5.26536 9.62692L5.25851 9.4679L1.43133 6.55511L1.30612 6.61348C0.476205 8.2402 0 10.0669 0 12.0003C0 13.9337 0.476205 15.7603 1.30612 17.387L5.27896 14.3737Z" fill="#FBBC05"/>
<path d="M12.2432 4.64006C14.5425 4.64006 16.0936 5.61341 16.978 6.42682L20.4338 3.12006C18.3114 1.1867 15.5494 0 12.2432 0C7.45394 0 3.31778 2.69337 1.30415 6.61342L5.26341 9.62685C6.25672 6.73346 9.00506 4.64006 12.2432 4.64006Z" fill="#EB4335"/>
</svg>
